
<svg width="869.569844px" height="859.045491px" viewBox="0 0 869.569844 859.045491" version="1.1" xmlns="http://www.w3.org/2000/svg" xmlns:xlink="http://www.w3.org/1999/xlink">
    <g id="Page-1" stroke="none" stroke-width="1" fill="none" fill-rule="evenodd">
        <!-- <g id="Shape" fill="#131517">
            <path d="M441.569844,858.956238 C428.369832,859.18219 412.771443,858.964111 406.906758,858.471558 C401.042042,857.979004 388.217061,856.418762 378.406758,855.004333 C368.596455,853.589966 353.369832,850.832397 344.569844,848.876404 C335.769856,846.92041 321.230214,843.107788 312.259511,840.403809 C303.288838,837.699829 291.588856,833.858032 286.259511,831.866394 C280.930196,829.874756 271.619832,826.117004 265.569844,823.515869 C259.519856,820.914734 248.944844,816.1026 242.069844,812.822266 C235.194844,809.54187 224.16985,803.803772 217.569844,800.070862 C210.969838,796.337952 201.519856,790.763672 196.569844,787.683533 C191.619832,784.603394 181.944844,778.022583 175.069844,773.059448 C168.194844,768.096375 158.069844,760.432617 152.569844,756.028809 C147.069844,751.625122 136.329747,741.942078 128.702962,734.510986 C121.076176,727.079956 109.778676,715.150024 103.597386,708 C97.4160963,700.849976 88.6458793,690.049988 84.1080063,684 C79.5701343,677.950012 72.5811973,668.049988 68.5770313,662 C64.5728503,655.950012 58.0175373,645.150024 54.0096633,638 C50.0017823,630.849976 44.3654373,620.049988 41.4844563,614 C38.6034743,607.950012 33.9043473,597.150024 31.0419663,590 C28.1795783,582.849976 23.8906523,571.113281 21.5110293,563.918457 C19.1313983,556.723633 15.7733813,545.248596 14.0487643,538.418457 C12.3241473,531.588257 9.79616234,520.609863 8.43102034,514.021851 C7.06587734,507.433868 5.31841734,497.758881 4.54776534,492.521851 C3.77711934,487.284821 2.43420934,476.093719 1.56351934,467.65274 C0.674039341,459.029541 -0.0108666587,443.584869 0.000130584088,432.401184 C0.0111663413,421.453796 0.491658341,406.535095 1.06802834,399.248413 C1.64440634,391.961792 2.77348034,380.584351 3.57709234,373.96521 C4.38069634,367.346069 6.13880634,356.546082 7.48399034,349.96521 C8.82917534,343.384338 11.0592773,333.275024 12.4397633,327.5 C13.8202563,321.724976 16.8258563,311.150024 19.1188783,304 C21.4119083,296.849976 25.7161223,284.762695 28.6838123,277.139282 C31.6514943,269.51593 36.7972993,257.590942 40.1189323,250.639282 C43.4405643,243.687683 49.3598983,232.150024 53.2730153,225 C57.1861313,217.849976 64.5256853,205.700012 69.5831343,198 C74.6405843,190.299988 83.4565633,177.856628 89.1741683,170.348022 C94.8917893,162.839417 104.917226,150.80896 111.452931,143.613586 C117.988621,136.418274 127.663625,126.552429 132.952931,121.689575 C138.242238,116.826721 146.844838,109.27356 152.069844,104.904785 C157.29485,100.536011 166.969838,92.949646 173.569844,88.046265 C180.16985,83.142883 189.394856,76.59314 194.069844,73.491333 C198.744832,70.389526 207.519856,64.897339 213.569844,61.286438 C219.619832,57.675537 230.582143,51.718262 237.930501,48.047974 C245.278859,44.377747 257.203847,38.766541 264.430501,35.578613 C271.657124,32.390747 283.7571,27.456848 291.319264,24.614502 C298.881459,21.772156 312.381459,17.430481 321.319264,14.96637 C330.2571,12.502258 345.419881,8.894714 355.014363,6.949585 C364.608845,5.004456 378.558858,2.645081 386.014363,1.706482 C396.483571,0.38855 407.538594,0 434.569844,0 C461.493672,0 473.146443,0.407227 485.069844,1.764832 C493.594868,2.735535 508.002034,5.040649 517.085896,6.887329 C526.169698,8.73407 540.344685,12.158142 548.585896,14.496399 C556.827046,16.834595 568.744832,20.668213 575.069844,23.015442 C581.394856,25.362671 592.554341,29.779724 599.868733,32.831116 C607.183125,35.882446 620.683125,42.275391 629.868733,47.037659 C639.054341,51.799866 651.519856,58.648438 657.569844,62.256775 C663.619832,65.865112 673.069844,71.836792 678.569844,75.527222 C684.069844,79.21759 694.869832,86.971619 702.569844,92.758301 C710.269856,98.544983 721.29482,107.462402 727.069844,112.574768 C732.844868,117.687134 742.451375,126.849243 748.417744,132.934998 C754.384053,139.020752 763.64034,149.197754 768.987324,155.550537 C774.334248,161.903381 782.699971,172.703369 787.577718,179.550537 C792.455525,186.397766 799.89803,197.400024 804.116658,204 C808.335286,210.599976 814.717793,221.400024 818.300008,228 C821.882222,234.599976 827.366597,245.531311 830.487508,252.291809 C833.608418,259.052307 838.584676,270.818237 841.545857,278.438232 C844.507039,286.058289 848.728719,297.919739 850.927327,304.796997 C853.125935,311.674316 856.277669,322.858459 857.93105,329.650635 C859.584492,336.442749 862.096638,348.075012 863.513631,355.5 C864.930623,362.924988 866.872945,375.974976 867.829915,384.5 C869.057454,395.435669 869.569844,407.950745 869.569844,427 C869.569844,441.850006 868.986409,459.850006 868.273396,467 C867.560323,474.149994 866.071187,486.075012 864.964192,493.5 C863.857259,500.924988 861.588643,513.075012 859.922871,520.5 C858.257161,527.924988 855.08083,540.525024 852.864339,548.5 C850.647908,556.474976 846.581258,569.299988 843.827351,577 C841.073384,584.700012 836.76418,595.724976 834.251302,601.5 C831.738423,607.275024 826.618733,618.032959 822.874287,625.406616 C819.129781,632.780334 812.726277,644.25531 808.644246,650.906616 C804.562276,657.557983 797.627644,668.045288 793.233968,674.211792 C788.840352,680.378235 780.74886,690.953247 775.252949,697.711792 C769.756978,704.470276 761.729939,713.825073 757.415059,718.500244 C753.100178,723.175354 744.619832,731.730469 738.569844,737.511658 C732.519856,743.292847 722.844868,751.875977 717.069844,756.585327 C711.29482,761.294678 700.494832,769.464844 693.069844,774.741211 C685.644856,780.017639 673.494832,788.02063 666.069844,792.525635 C658.644856,797.03064 643.119832,805.404297 631.569844,811.133728 C620.019856,816.863159 602.694844,824.646118 593.069844,828.429077 C583.444844,832.212158 568.819844,837.365601 560.569844,839.881226 C552.319844,842.396851 539.944844,845.791504 533.069844,847.424866 C526.194844,849.058228 515.16982,851.315063 508.569844,852.440063 C501.969868,853.565063 489.594868,855.398987 481.069844,856.515442 C470.636433,857.881836 457.724812,858.679688 441.569844,858.956238 Z M458.569844,610 C580.15395,609.484497 580.15395,609.484497 581.861897,612.601196 C582.801289,614.315308 585.505879,618.252808 587.872151,621.351074 C590.238484,624.449402 594.513448,628.919189 597.372151,631.283997 C600.230916,633.648804 605.269856,636.880981 608.569844,638.466614 C611.869832,640.052246 618.367879,642.116577 623.009969,643.053894 C628.74825,644.212646 634.030232,644.594543 639.509969,644.247009 C644.327657,643.941406 650.718648,642.675049 655.397664,641.098877 C659.702962,639.64856 665.556782,636.970581 668.406087,635.147888 C671.255452,633.325195 676.348836,628.819519 679.724751,625.135254 C683.219258,621.321655 687.426411,615.272217 689.493306,611.089233 C691.49001,607.048096 693.778767,600.649902 694.579427,596.870911 C695.380025,593.091919 696.037681,587.299988 696.037681,584 C696.037681,580.700012 695.373738,574.849976 694.565449,571 C693.7571,567.150024 691.465108,560.686401 689.472066,556.636414 C687.099873,551.81604 683.415974,546.712158 678.805806,541.858887 C673.319356,536.08313 669.974324,533.563293 663.666585,530.454468 C659.213399,528.259705 652.41982,525.804932 648.569844,524.99939 C644.719868,524.193848 639.094868,523.534729 636.069844,523.534729 C633.04482,523.534729 627.432759,524.199219 623.598531,525.011475 C619.764302,525.823608 613.416157,528.013062 609.491475,529.876892 C604.822407,532.094238 599.866109,535.614258 595.153523,540.059937 C590.947652,544.027466 586.293416,549.692749 583.96645,553.677063 L579.981648,560.5 L520.275716,560.48468 C487.43752,560.476257 460.003194,560.109619 459.310567,559.669922 C458.319539,559.040771 458.106526,548.02063 458.310567,507.935242 L458.569844,457 L517.569844,456.785675 C553.787984,456.654114 577.938802,456.179626 580.115071,455.556885 C582.064961,454.998932 585.567952,452.909515 587.899556,450.913757 C590.23116,448.917999 592.980427,445.635406 594.009114,443.61908 C595.03774,441.602783 596.195943,437.842041 596.582844,435.261932 C596.99825,432.491821 596.795369,428.524292 596.087422,425.573181 C595.305928,422.315613 593.523396,419.024719 590.967915,416.121521 C588.811604,413.671814 584.914876,410.61731 582.308552,409.33374 C577.569844,407 577.569844,407 517.819844,406.712769 L458.069844,406.425598 L458.069844,354.962769 L458.069844,303.5 L519.021382,303.5 L579.97292,303.5 L584.392293,310.331604 C586.822957,314.08905 591.449177,319.738342 594.672749,322.885681 C598.268147,326.395935 603.497334,330.09137 608.199727,332.445007 C612.567769,334.631226 618.870808,336.818909 622.851094,337.530273 C626.968465,338.266052 633.887715,338.575256 639.703206,338.283386 C646.680012,337.933167 651.683369,337.046509 656.785847,335.256104 C660.754658,333.863464 666.948384,330.62146 670.549641,328.051697 C674.150899,325.481873 679.313435,320.716431 682.021931,317.461853 C684.730427,314.207214 688.312459,308.68219 689.982014,305.184021 C691.65157,301.685791 693.697652,295.938293 694.52895,292.411804 C695.360188,288.885315 696.037681,282.849976 696.037681,279 C696.037681,275.150024 695.373738,268.849976 694.565449,265 C693.7571,261.150024 691.480061,254.716675 689.50533,250.703735 C687.374776,246.374207 683.40511,240.721863 679.74239,236.802429 C676.347493,233.169678 671.266194,228.665833 668.450703,226.794006 C665.635152,224.922119 660.074361,222.257874 656.093343,220.873413 C651.595296,219.309143 645.564961,218.143066 640.163777,217.793152 C634.123433,217.401794 629.070882,217.719788 623.599324,218.835571 C619.269124,219.718628 612.402241,222.019714 608.339558,223.949036 C603.407674,226.291199 599.019734,229.390076 595.135945,233.273926 C591.936604,236.473206 587.240865,242.332947 584.700948,246.29541 L580.082967,253.5 L519.076375,253.5 L458.069844,253.5 L458.072224,228.75 C458.074605,204 458.074605,204 463.786763,201.015076 C466.928487,199.373352 472.351155,195.362061 475.837178,192.101013 C479.323262,188.840027 483.915547,183.208252 486.042317,179.585938 C488.169087,175.963684 490.873982,169.849976 492.053181,166 C493.232442,162.150024 494.453145,155.171387 494.765889,150.491882 C495.217244,143.739197 494.898091,140.257813 493.219014,133.618103 C492.055501,129.017029 489.516438,122.41449 487.57668,118.945862 C485.636922,115.477295 481.775838,110.151123 478.996419,107.110046 C476.217,104.068909 471.216145,99.759888 467.883382,97.534363 C464.542622,95.303406 457.953145,92.258606 453.196858,90.747986 C446.17928,88.519226 442.704243,88.008057 434.569844,88.008057 C426.457417,88.008057 422.956532,88.520569 416.022786,90.723083 C411.321919,92.216309 404.796773,95.169556 401.522481,97.285828 C398.248158,99.402161 393.034505,103.93457 389.936574,107.357849 C386.838643,110.781189 382.893849,116.446472 381.170369,119.947327 C379.446889,123.448242 377.311513,129.251587 376.425069,132.843628 C375.226979,137.698669 374.939076,142.277832 375.303181,150.687378 C375.686085,159.530334 376.354878,163.509338 378.366688,168.913574 C379.782216,172.716064 383.054219,178.920898 385.637837,182.702148 C388.221425,186.483337 392.629445,191.583984 395.4334,194.036804 C398.237386,196.489685 402.847615,199.709167 405.678395,201.191284 C410.825276,203.885986 410.825276,203.885986 411.44756,209.839722 C411.789815,213.114197 412.065938,221.914856 412.061146,229.396667 C412.056386,236.87854 411.768269,245.365906 411.420949,248.257629 C410.789448,253.515259 410.789448,253.515259 349.744893,253.257629 C288.700307,253 288.700307,253 285.354695,247.27417 C283.514638,244.125 279.594472,238.950012 276.6433,235.77417 C273.692097,232.598389 268.751942,228.480286 265.665211,226.622803 C262.57848,224.765381 257.019246,222.13208 253.311391,220.770996 C249.204488,219.263489 243.420003,218.090332 238.509969,217.769104 C233.002583,217.408813 227.777211,217.778992 222.009969,218.937988 C217.367909,219.87085 210.41985,222.154236 206.569844,224.012207 C202.719838,225.870117 197.133046,229.539856 194.154744,232.167114 C191.176472,234.794373 186.57848,240.254517 183.937032,244.300842 C181.295552,248.347168 178.10735,254.846558 176.852101,258.743958 C174.968709,264.591736 174.569844,268.044434 174.569844,278.5 C174.569844,288.998718 174.96555,292.398499 176.879033,298.339661 C178.149083,302.28302 181.401997,308.819275 184.107716,312.864685 C186.813435,316.910095 191.624318,322.358154 194.798512,324.971558 C197.972737,327.5849 203.04485,330.964233 206.069844,332.48114 C209.094838,333.998047 214.523579,335.9729 218.133748,336.869568 C221.880727,337.800293 228.764271,338.5 234.173634,338.5 C239.392598,338.5 246.250386,337.822571 249.438802,336.992126 C252.622823,336.162781 257.627492,334.309265 260.560261,332.87323 C263.493062,331.437195 268.600484,328.071228 271.910054,325.393311 C275.7412,322.293396 279.964223,317.431641 283.533223,312.012207 L289.138936,303.5 L349.953572,303.5 L410.768208,303.5 L411.413838,313.25 C411.768941,318.612488 412.056874,340.099976 412.05367,361 C412.050465,381.900024 411.76891,400.6875 411.427998,402.75 C410.808156,406.5 410.808156,406.5 353.988209,406.5 C316.689473,406.5 295.418782,406.875183 292.07607,407.592102 C289.239156,408.2005 285.120625,410.098511 282.776845,411.877625 C280.453236,413.641479 277.26653,417.487305 275.658559,420.468323 C273.48885,424.490784 272.728688,427.28363 272.674275,431.43277 C272.634022,434.49884 273.385945,439.05127 274.34789,441.565826 C275.308583,444.077026 277.577473,447.568909 279.389851,449.325562 C281.20226,451.082214 284.441853,453.4151 286.588948,454.509735 C290.358357,456.431488 292.565175,456.5 350.70934,456.5 L410.925923,456.5 L411.625813,462.101563 C412.010731,465.182404 412.129323,488.121185 411.889363,513.076599 C411.649403,538.032043 411.104542,558.798828 410.678578,559.225098 C410.252614,559.651245 382.760823,560.122681 349.585683,560.272583 L289.267232,560.545166 L285.699086,554.164673 C283.736592,550.655457 280.067891,545.489624 277.546407,542.685181 C275.024922,539.880615 270.231587,535.802124 266.894551,533.621704 C263.557545,531.441284 256.944325,528.389282 252.198537,526.8396 C244.952992,524.473511 241.886739,524.022705 233.069844,524.027222 C224.658009,524.031494 221.078297,524.518433 215.069844,526.475891 C210.74883,527.883606 204.394459,531.074219 200.078328,534.003418 C195.870564,536.859009 190.478413,541.698242 187.776723,545.043762 C185.131154,548.319702 181.647389,553.700012 180.034993,557 C178.422627,560.299988 176.367284,565.920044 175.46758,569.489014 C174.567876,573.057983 173.831746,579.812866 173.831746,584.5 C173.831746,589.187134 174.567876,595.942017 175.46758,599.510986 C176.367284,603.079956 178.527837,608.921753 180.268819,612.492798 C182.413899,616.8927 185.880757,621.432129 191.02419,626.575562 C196.510304,632.061646 200.68697,635.187744 206.092,637.853149 C210.204823,639.881226 217.147908,642.267273 221.521107,643.155334 C227.026387,644.273254 232.117635,644.598572 238.071492,644.212891 C242.801015,643.906433 249.521901,642.69519 253.006825,641.52124 C256.491719,640.34729 261.869038,637.792664 264.95641,635.84436 C268.043813,633.895996 272.956868,629.984009 275.874348,627.151001 C278.791829,624.317932 282.961293,619.1875 285.139821,615.75 L289.100789,609.5 L349.526295,609.5 C396.769826,609.5 410.127797,609.772705 410.758443,610.75 C411.202107,611.4375 411.724324,621.349915 411.918965,632.777588 C412.113576,644.205261 412.007741,654.611267 411.683766,655.9021 C411.283253,657.497925 409.255543,659.169189 405.347676,661.124512 C402.186787,662.706055 396.62914,666.924988 392.997334,670.5 C389.365559,674.075012 385.118977,679.196167 383.560506,681.880432 C382.002034,684.564697 379.634633,689.739685 378.299641,693.380432 C376.57253,698.090454 375.715138,702.956909 375.327473,710.250244 C374.921437,717.888367 375.201131,722.220642 376.424977,727.250244 C377.328297,730.962646 379.616353,737.150024 381.509511,741 C383.402699,744.849976 387.333791,750.665527 390.24529,753.923401 C393.156758,757.181274 398.180226,761.553955 401.408559,763.640503 C404.636861,765.727051 409.695637,768.338745 412.650288,769.444214 C415.604939,770.549683 420.84554,771.887756 424.296101,772.417725 C427.746663,772.947693 434.16985,773.187439 438.569844,772.950439 C442.969868,772.713501 449.590596,771.680298 453.282674,770.654419 C456.974751,769.62854 462.53719,767.261597 465.643697,765.394592 C468.750142,763.527588 474.387532,758.696594 478.171162,754.659058 C482.459248,750.083252 486.377705,744.621521 488.574055,740.159058 C490.512044,736.221558 492.810445,729.625 493.681538,725.5 C494.747761,720.451233 495.082234,715.492554 494.704915,710.328003 C494.396687,706.108398 492.934102,698.993835 491.454793,694.517883 C489.802937,689.519897 486.886189,683.704285 483.89565,679.445862 C481.217427,675.632202 476.761433,670.721802 473.993428,668.533813 C471.225423,666.345825 466.516927,663.080627 463.53011,661.277832 C458.099568,658 458.099568,658 458.334737,634 L458.569844,610 Z"></path>
        </g> -->
        <g id="Shape-1" transform="translate(173.8317, 87.0081)" fill="#FFFFFF">
            <path d="M115.269043,521.491943 C109.129547,531.179443 104.960083,536.309875 102.042602,539.142944 C99.125122,541.975952 94.212067,545.887939 91.124664,547.836303 C88.037292,549.784607 82.659973,552.339233 79.175079,553.513183 C75.690155,554.687133 68.969269,555.898376 64.239746,556.204834 C58.285889,556.590515 53.194641,556.265197 47.689361,555.147277 C43.316162,554.259216 36.373077,551.873169 32.260254,549.845092 C26.855224,547.179687 22.678558,544.053589 17.192444,538.567505 C12.049011,533.424072 8.582153,528.884643 6.437073,524.484741 C4.696091,520.913696 2.535538,515.071899 1.635834,511.502929 C0.73613,507.93399 -2.0539126e-14,501.179046 -2.0539126e-14,496.491943 C-2.0539126e-14,491.80484 0.73613,485.049896 1.635834,481.480926 C2.535538,477.911987 4.590881,472.291931 6.203247,468.991943 C7.815643,465.691955 11.299408,460.311615 13.944977,457.035705 C16.646667,453.690216 22.038818,448.850921 26.246582,445.99533 C30.562713,443.066192 36.917084,439.875549 41.238098,438.467834 C47.246551,436.510406 50.826263,436.023437 59.238098,436.019134 C68.054993,436.014648 71.121246,436.465454 78.366791,438.831512 C83.112579,440.381256 89.725799,443.433197 93.062805,445.613617 C96.399841,447.794037 101.193176,451.872589 103.714661,454.677093 C106.236145,457.481598 109.904846,462.6474 111.86734,466.156646 L115.435486,472.537109 L175.753937,472.264526 C208.929077,472.114593 236.420868,471.643219 236.846832,471.21701 C237.272796,470.790771 237.817657,450.023986 238.057617,425.068542 C238.297577,400.113128 238.178985,377.174347 237.794067,374.093506 L237.094177,368.491943 L176.877594,368.491943 C118.733429,368.491943 116.526611,368.423431 112.757202,366.501678 C110.610107,365.407043 107.370514,363.074157 105.558105,361.317505 C103.745727,359.560852 101.476837,356.068969 100.516144,353.557769 C99.554199,351.043213 98.802276,346.490783 98.842529,343.424713 C98.896942,339.275573 99.657104,336.482727 101.826813,332.460266 C103.434784,329.479248 106.62149,325.633422 108.945099,323.869568 C111.288879,322.090454 115.40741,320.192443 118.244324,319.584045 C121.587036,318.867126 142.857727,318.491943 180.156463,318.491943 C236.97641,318.491943 236.97641,318.491943 237.596252,314.741943 C237.937164,312.679443 238.218719,293.891967 238.221924,272.991943 C238.225128,252.091919 237.937195,230.604431 237.582092,225.241943 L236.936462,215.491943 L176.121826,215.491943 L115.30719,215.491943 L109.701477,224.00415 C106.132477,229.423584 101.909454,234.285339 98.078308,237.385254 C94.768738,240.063171 89.661316,243.429138 86.728515,244.865173 C83.795746,246.301208 78.791077,248.154724 75.607056,248.984069 C72.41864,249.814514 65.560852,250.491943 60.341888,250.491943 C54.932525,250.491943 48.048981,249.792236 44.302002,248.861511 C40.691833,247.964843 35.263092,245.98999 32.238098,244.473083 C29.213104,242.956176 24.140991,239.576843 20.966766,236.963501 C17.792572,234.350097 12.981689,228.902038 10.27597,224.856628 C7.570251,220.811218 4.317337,214.274963 3.047287,210.331604 C1.133804,204.390442 0.738098,200.990661 0.738098,190.491943 C0.738098,180.036377 1.136963,176.583679 3.020355,170.735901 C4.275604,166.838501 7.463806,160.339111 10.105286,156.292785 C12.746734,152.24646 17.344726,146.786316 20.322998,144.159057 C23.3013,141.531799 28.888092,137.86206 32.738098,136.00415 C36.588104,134.146179 43.536163,131.862793 48.178223,130.929931 C53.945465,129.770935 59.170837,129.400756 64.678223,129.761047 C69.588257,130.082275 75.372742,131.255432 79.479645,132.762939 C83.1875,134.124023 88.746734,136.757324 91.833465,138.614746 C94.920196,140.472229 99.860351,144.590332 102.811554,147.766113 C105.762726,150.941955 109.682892,156.116943 111.522949,159.266113 C114.868561,164.991943 114.868561,164.991943 175.913147,165.249572 C236.957702,165.507202 236.957702,165.507202 237.589203,160.249572 C237.936523,157.357849 238.22464,148.870483 238.2294,141.38861 C238.234192,133.906799 237.958069,125.10614 237.615814,121.831665 C236.99353,115.877929 236.99353,115.877929 231.846649,113.183227 C229.015869,111.70111 224.40564,108.481628 221.601654,106.028747 C218.797699,103.575927 214.389679,98.47528 211.806091,94.694091 C209.222473,90.912841 205.95047,84.708007 204.534942,80.905517 C202.523132,75.501281 201.854339,71.522277 201.471435,62.679321 C201.10733,54.269775 201.395233,49.690612 202.593323,44.835571 C203.479767,41.24353 205.615143,35.440185 207.338623,31.93927 C209.062103,28.438415 213.006897,22.773132 216.104828,19.349792 C219.202759,15.926513 224.416412,11.394104 227.690735,9.277771 C230.965027,7.161499 237.490173,4.208252 242.19104,2.715026 C249.124786,0.512512 252.625671,-7.99360578e-15 260.738098,-7.99360578e-15 C268.872497,-7.99360578e-15 272.347534,0.511169 279.365112,2.739929 C284.121399,4.250549 290.710876,7.295349 294.051636,9.526306 C297.384399,11.751831 302.385254,16.060852 305.164673,19.101989 C307.944092,22.143066 311.805176,27.469238 313.744934,30.937805 C315.684692,34.406433 318.223755,41.008972 319.387268,45.610046 C321.066345,52.249756 321.385498,55.73114 320.934143,62.483825 C320.621399,67.16333 319.400696,74.141967 318.221435,77.991943 C317.042236,81.841919 314.337341,87.955627 312.210571,91.577881 C310.083801,95.200195 305.491516,100.83197 302.005432,104.092956 C298.519409,107.354004 293.096741,111.365295 289.955017,113.007019 C284.242859,115.991943 284.242859,115.991943 284.240478,140.741943 L284.238098,165.491943 L345.244629,165.491943 L406.251221,165.491943 L410.869202,158.287353 C413.409119,154.32489 418.104858,148.465149 421.304199,145.265869 C425.187988,141.382019 429.575928,138.283142 434.507812,135.940979 C438.570495,134.011657 445.437378,131.710571 449.767578,130.827514 C455.239136,129.711731 460.291687,129.393737 466.332031,129.785095 C471.733215,130.135009 477.76355,131.301086 482.261597,132.865356 C486.242615,134.249817 491.803406,136.914062 494.618957,138.785949 C497.434448,140.657776 502.515747,145.161621 505.910644,148.794372 C509.573364,152.713806 513.54303,158.36615 515.673584,162.695678 C517.648315,166.708618 519.925354,173.141967 520.733703,176.991943 C521.541992,180.841919 522.205934,187.141967 522.205934,190.991943 C522.205934,194.841919 521.528442,200.877258 520.697204,204.403747 C519.865906,207.930236 517.819824,213.677734 516.150268,217.175964 C514.480713,220.674133 510.898681,226.199157 508.190185,229.453796 C505.481689,232.708374 500.319153,237.473816 496.717895,240.04364 C493.116638,242.613403 486.922912,245.855407 482.954101,247.248047 C477.851623,249.038452 472.848266,249.92511 465.87146,250.275329 C460.055969,250.567199 453.136719,250.257995 449.019348,249.522216 C445.039062,248.810852 438.736023,246.623169 434.367981,244.43695 C429.665588,242.083313 424.436401,238.387878 420.841003,234.877624 C417.617431,231.730285 412.991211,226.080993 410.560547,222.323547 L406.141174,215.491943 L345.189636,215.491943 L284.238098,215.491943 L284.238098,266.954712 L284.238098,318.417541 L343.988098,318.704712 C403.738098,318.991943 403.738098,318.991943 408.476806,321.325683 C411.08313,322.609253 414.979858,325.663757 417.136169,328.113464 C419.69165,331.016662 421.474182,334.307556 422.255676,337.565124 C422.963623,340.516235 423.166504,344.483764 422.751098,347.253875 C422.364197,349.833984 421.205994,353.594726 420.177368,355.611023 C419.148681,357.627349 416.399414,360.909942 414.06781,362.9057 C411.736206,364.901458 408.233215,366.990875 406.283325,367.548828 C404.107056,368.171569 379.956238,368.646057 343.738098,368.777618 L284.738098,368.991943 L284.478821,419.927185 C284.27478,460.012603 284.487793,471.032745 285.478821,471.661895 C286.171448,472.101562 313.605774,472.4682 346.44397,472.476623 L406.149902,472.491943 L410.134704,465.669006 C412.46167,461.684692 417.115906,456.019439 421.321777,452.051849 C426.034363,447.60617 430.990661,444.086181 435.659729,441.868835 C439.584411,440.005035 445.932556,437.815582 449.766785,437.003387 C453.601013,436.191192 459.213074,435.526672 462.238098,435.526672 C465.263122,435.526672 470.888122,436.18576 474.738098,436.991302 C478.588074,437.796844 485.381653,440.251648 489.834839,442.446441 C496.142578,445.555236 499.48761,448.075042 504.97406,453.85086 C509.584228,458.704101 513.268127,463.808014 515.64032,468.628357 C517.633362,472.678314 519.925354,479.141937 520.733703,482.991943 C521.541992,486.841949 522.205934,492.691955 522.205934,495.991943 C522.205934,499.291931 521.548279,505.083831 520.747681,508.862854 C519.947021,512.641845 517.658264,519.040039 515.66156,523.081176 C513.594665,527.26416 509.387512,533.313598 505.893005,537.127197 C502.51709,540.811462 497.423706,545.317138 494.574341,547.139831 C491.725036,548.962524 485.871216,551.640503 481.565918,553.09082 C476.886902,554.666992 470.495911,555.933349 465.678223,556.238952 C460.198486,556.586486 454.916504,556.204589 449.178223,555.045837 C444.536133,554.10852 438.038086,552.044189 434.738098,550.458557 C431.43811,548.872924 426.39917,545.640747 423.540405,543.27594 C420.681702,540.911132 416.406738,536.441345 414.040405,533.343017 C411.674133,530.244751 408.969543,526.307251 408.030151,524.593139 C406.322204,521.47644 406.322204,521.47644 345.530151,521.734192 L284.738098,521.991943 L284.502991,545.991943 C284.267822,569.991943 284.267822,569.991943 289.698364,573.269775 C292.685181,575.07257 297.393677,578.337768 300.161682,580.525756 C302.929687,582.713745 307.385681,587.624145 310.063904,591.437805 C313.054443,595.696228 315.971191,601.51184 317.623047,606.509826 C319.102356,610.985778 320.564941,618.100341 320.873169,622.319946 C321.250488,627.484497 320.916015,632.443176 319.849792,637.491943 C318.978699,641.616943 316.680298,648.213501 314.742309,652.151001 C312.545959,656.613464 308.627502,662.075195 304.339416,666.651001 C300.555786,670.688537 294.918396,675.519531 291.811951,677.386535 C288.705444,679.25354 283.143005,681.620483 279.450928,682.646362 C275.75885,683.672241 269.138122,684.705444 264.738098,684.942382 C260.338104,685.179382 253.914917,684.939636 250.464355,684.409668 C247.013794,683.879699 241.773193,682.541626 238.818542,681.436157 C235.863891,680.330688 230.805115,677.718994 227.576813,675.632446 C224.34848,673.545898 219.325012,669.173217 216.413544,665.915344 C213.502045,662.65747 209.570953,656.841919 207.677765,652.991943 C205.784607,649.141967 203.496551,642.954589 202.593231,639.242187 C201.369385,634.212585 201.089691,629.88031 201.495727,622.242187 C201.883392,614.948852 202.740784,610.082397 204.467895,605.372375 C205.802887,601.731628 208.170288,596.55664 209.72876,593.872375 C211.287231,591.18811 215.533813,586.066955 219.165588,582.491943 C222.797394,578.916931 228.355041,574.697998 231.51593,573.116455 C235.423797,571.161132 237.451507,569.489868 237.85202,567.894043 C238.175995,566.60321 238.28183,556.197204 238.087219,544.769531 C237.892578,533.341858 237.370361,523.429443 236.926697,522.741943 C236.296051,521.764648 222.93808,521.491943 175.694549,521.491943 L115.269043,521.491943 Z" id="Shape"></path>
        </g>
    </g>
</svg>